<svg xmlns="http://www.w3.org/2000/svg" width="294" height="124" fill="none" viewBox="0 0 294 124"><circle cx="52.5" cy="26.163" r="18.5" fill="#F63D3A" transform="rotate(45 52.5 26.163)"/><circle cx="79.163" cy="62.5" r="18.5" fill="#19A68C" transform="rotate(45 79.163 62.5)"/><circle cx="26.163" cy="62.5" r="18.5" fill="#193B48" transform="rotate(45 26.163 62.5)"/><circle cx="52.5" cy="97.163" r="18.5" fill="#FDA543" transform="rotate(45 52.5 97.1629)"/><path fill="#193B48" d="M142.734 62.8741H117.547C117.817 68.7714 120.676 71.72 126.123 71.72C127.969 71.72 129.634 71.2248 131.12 70.2345C132.515 69.3791 133.371 68.3662 133.686 67.1958H142.127C139.561 75.0288 134.113 78.9454 125.785 78.9454C120.338 78.9454 115.994 77.2572 112.753 73.8809C109.556 70.4596 107.958 66.0253 107.958 60.5782C107.958 55.2661 109.601 50.8769 112.888 47.4105C116.219 43.8992 120.518 42.1435 125.785 42.1435C131.457 42.1435 135.847 44.2593 138.953 48.491C141.834 52.3625 143.095 57.1568 142.734 62.8741ZM117.547 56.7967H133.146C132.245 51.8448 129.702 49.3688 125.515 49.3688C122.814 49.3688 120.743 50.2692 119.303 52.0699C118.222 53.4204 117.637 54.996 117.547 56.7967ZM148.691 78V29.7861H158.28V78H148.691ZM166.101 78V43.0888H175.689V78H166.101ZM175.689 29.7861V37.6867H166.101V29.7861H175.689ZM183.24 90.2898V43.0888H192.356V47.5456H192.491C194.697 43.9442 198.163 42.1435 202.89 42.1435C208.067 42.1435 212.073 44.0342 214.91 47.8157C217.476 51.192 218.759 55.5587 218.759 60.9158C218.759 65.9128 217.476 70.0769 214.91 73.4082C212.118 77.0996 208.292 78.9454 203.43 78.9454C198.793 78.9454 195.304 77.1897 192.963 73.6783H192.828V90.2898H183.24ZM200.864 71.72C206.401 71.72 209.17 68.0286 209.17 60.6457C209.17 57.4945 208.54 54.9285 207.279 52.9477C205.793 50.5618 203.633 49.3688 200.797 49.3688C197.87 49.3688 195.71 50.5393 194.314 52.8802C193.099 54.8609 192.491 57.4495 192.491 60.6457C192.491 63.7969 193.121 66.3404 194.382 68.2762C195.822 70.5721 197.983 71.72 200.864 71.72ZM222.832 66.6556H231.948C231.993 68.6363 232.759 70.1444 234.244 71.1798C235.55 72.0802 237.238 72.5304 239.309 72.5304C240.974 72.5304 242.37 72.2152 243.495 71.585C244.891 70.7747 245.589 69.6042 245.589 68.0736C245.589 66.7231 244.643 65.6427 242.753 64.8323C241.402 64.2471 238.724 63.5268 234.717 62.6715C231.296 61.9512 228.752 61.0059 227.086 59.8354C224.791 58.3048 223.643 56.144 223.643 53.3529C223.643 45.8799 228.707 42.1435 238.836 42.1435C248.47 42.1435 253.602 45.8574 254.232 53.2853H245.116C244.891 50.1341 242.708 48.5585 238.566 48.5585C235.01 48.5585 233.231 49.6389 233.231 51.7998C233.231 53.2853 234.357 54.4333 236.608 55.2436C236.878 55.3336 239.376 55.9189 244.103 56.9993C247.569 57.8096 250.113 58.8 251.734 59.9704C254.03 61.5911 255.177 63.8645 255.177 66.7906C255.177 71.0223 253.512 74.196 250.181 76.3118C247.434 78.0675 243.788 78.9454 239.241 78.9454C234.694 78.9454 231.003 78.045 228.167 76.2443C224.791 74.1285 223.012 70.9322 222.832 66.6556ZM293.877 62.8741H268.69C268.96 68.7714 271.819 71.72 277.266 71.72C279.112 71.72 280.777 71.2248 282.263 70.2345C283.658 69.3791 284.514 68.3662 284.829 67.1958H293.27C290.704 75.0288 285.257 78.9454 276.928 78.9454C271.481 78.9454 267.137 77.2572 263.896 73.8809C260.699 70.4596 259.101 66.0253 259.101 60.5782C259.101 55.2661 260.745 50.8769 264.031 47.4105C267.362 43.8992 271.661 42.1435 276.928 42.1435C282.601 42.1435 286.99 44.2593 290.096 48.491C292.977 52.3625 294.238 57.1568 293.877 62.8741ZM268.69 56.7967H284.289C283.388 51.8448 280.845 49.3688 276.658 49.3688C273.957 49.3688 271.886 50.2692 270.446 52.0699C269.365 53.4204 268.78 54.996 268.69 56.7967Z"/><path fill="#193B48" fill-opacity=".66" d="M211.123 85.3524V84.0444H212.446V81.6592H214.201V84.0444H215.786V85.3524H214.201V89.5995C214.201 90.0098 214.242 90.2817 214.324 90.415C214.437 90.5997 214.678 90.692 215.047 90.692C215.375 90.692 215.622 90.6715 215.786 90.6305V91.9846C215.016 92.0462 214.637 92.0769 214.647 92.0769C213.785 92.0769 213.19 91.9025 212.862 91.5537C212.585 91.2665 212.446 90.7638 212.446 90.0457V85.3524H211.123ZM217.048 92V84.0444H218.694V85.5832H218.725C218.828 85.1421 219.11 84.742 219.571 84.3829C220.033 84.0136 220.525 83.8289 221.049 83.8289C221.182 83.8289 221.402 83.8443 221.71 83.8751V85.5678C221.3 85.5165 221.049 85.4909 220.956 85.4909C220.33 85.4909 219.823 85.7268 219.433 86.1987C219.012 86.6911 218.802 87.3631 218.802 88.2145V92H217.048ZM227.366 89.3225V88.0145C227.141 88.1581 226.812 88.2658 226.381 88.3376C225.992 88.3889 225.602 88.4402 225.212 88.4915C224.258 88.6557 223.781 89.0968 223.781 89.8149C223.781 90.1637 223.976 90.4304 224.366 90.6151C224.663 90.7587 225.007 90.8305 225.397 90.8305C225.869 90.8305 226.294 90.7177 226.674 90.492C227.135 90.215 227.366 89.8252 227.366 89.3225ZM229.121 86.1372V90.2304C229.121 90.6305 229.259 90.8305 229.536 90.8305C229.7 90.8305 229.844 90.8202 229.967 90.7997V92.0154C229.587 92.1488 229.218 92.2154 228.859 92.2154C228.079 92.2154 227.628 91.8923 227.505 91.246C226.848 91.8923 225.93 92.2154 224.75 92.2154C223.981 92.2154 223.35 92.0205 222.858 91.6307C222.304 91.2101 222.027 90.6305 222.027 89.8918C222.027 89.0096 222.355 88.3735 223.011 87.9837C223.412 87.7478 224.104 87.558 225.089 87.4144C226.197 87.2502 226.751 87.1682 226.751 87.1682C227.233 87.0245 227.474 86.7322 227.474 86.291C227.474 85.5729 226.925 85.2139 225.827 85.2139C224.73 85.2139 224.145 85.6345 224.073 86.4757H222.319C222.422 84.7112 223.627 83.8289 225.935 83.8289C226.807 83.8289 227.53 84.0033 228.105 84.3521C228.782 84.7625 229.121 85.3575 229.121 86.1372ZM231.008 92V84.0444H232.67V85.2139L232.701 85.2446C233.265 84.3008 234.091 83.8289 235.178 83.8289C236.06 83.8289 236.748 84.0598 237.24 84.5214C237.743 84.983 237.994 85.655 237.994 86.5372V92H236.24V86.9989C236.24 85.8089 235.722 85.2139 234.686 85.2139C234.111 85.2139 233.645 85.4139 233.286 85.814C232.937 86.2141 232.762 86.7116 232.762 87.3066V92H231.008ZM239.413 89.4456H241.168C241.25 90.3689 241.85 90.8305 242.968 90.8305C244.178 90.8305 244.768 90.4817 244.738 89.7841C244.717 89.2917 244.255 88.9378 243.353 88.7223C241.845 88.353 241.029 88.1376 240.906 88.076C240.024 87.6862 239.583 87.0297 239.583 86.1064C239.583 85.3165 239.957 84.7214 240.706 84.3214C241.301 83.9931 242.034 83.8289 242.906 83.8289C243.799 83.8289 244.532 84.0136 245.107 84.3829C245.753 84.8138 246.128 85.4447 246.23 86.2756H244.399C244.266 85.5678 243.727 85.2139 242.783 85.2139C241.819 85.2139 241.337 85.4857 241.337 86.0294C241.337 86.3987 241.609 86.6809 242.152 86.8758C242.255 86.9168 242.845 87.0604 243.922 87.3066C244.722 87.4913 245.312 87.717 245.692 87.9837C246.225 88.3735 246.492 88.9224 246.492 89.6302C246.492 90.5022 246.107 91.169 245.338 91.6307C244.691 92.0205 243.891 92.2154 242.937 92.2154C241.891 92.2154 241.06 91.9897 240.444 91.5384C239.767 91.0459 239.424 90.3483 239.413 89.4456ZM253.994 88.0299C253.994 87.2605 253.81 86.6091 253.44 86.0756C253.03 85.5011 252.481 85.2139 251.794 85.2139C251.076 85.2139 250.522 85.4652 250.132 85.9679C249.752 86.4706 249.563 87.1579 249.563 88.0299C249.563 88.8506 249.763 89.5225 250.163 90.0457C250.563 90.5689 251.107 90.8305 251.794 90.8305C252.532 90.8305 253.102 90.5381 253.502 89.9534C253.83 89.4507 253.994 88.8095 253.994 88.0299ZM247.87 94.9391V84.0444H249.532V85.1215H249.563C250.034 84.2598 250.855 83.8289 252.025 83.8289C253.225 83.8289 254.158 84.2444 254.825 85.0754C255.441 85.8345 255.749 86.8296 255.749 88.0607C255.749 89.2199 255.472 90.1791 254.918 90.9382C254.292 91.7897 253.425 92.2154 252.317 92.2154C251.065 92.2154 250.178 91.8 249.655 90.969H249.624V94.9391H247.87ZM260.878 90.8305C261.616 90.8305 262.191 90.533 262.601 89.938C262.96 89.4251 263.14 88.7839 263.14 88.0145C263.14 87.2553 262.96 86.6193 262.601 86.1064C262.191 85.5114 261.616 85.2139 260.878 85.2139C260.139 85.2139 259.565 85.5114 259.154 86.1064C258.795 86.6193 258.616 87.2553 258.616 88.0145C258.616 88.7839 258.795 89.4251 259.154 89.938C259.565 90.533 260.139 90.8305 260.878 90.8305ZM260.878 92.2154C259.626 92.2154 258.636 91.8205 257.908 91.0306C257.21 90.2714 256.862 89.2661 256.862 88.0145C256.862 86.7732 257.216 85.7678 257.923 84.9984C258.641 84.2188 259.626 83.8289 260.878 83.8289C262.129 83.8289 263.119 84.2239 263.848 85.0138C264.545 85.773 264.894 86.7732 264.894 88.0145C264.894 89.2661 264.545 90.2714 263.848 91.0306C263.119 91.8205 262.129 92.2154 260.878 92.2154ZM266.353 92V84.0444H267.999V85.5832H268.03C268.132 85.1421 268.415 84.742 268.876 84.3829C269.338 84.0136 269.83 83.8289 270.353 83.8289C270.487 83.8289 270.707 83.8443 271.015 83.8751V85.5678C270.605 85.5165 270.353 85.4909 270.261 85.4909C269.635 85.4909 269.128 85.7268 268.738 86.1987C268.317 86.6911 268.107 87.3631 268.107 88.2145V92H266.353ZM270.962 85.3524V84.0444H272.286V81.6592H274.04V84.0444H275.625V85.3524H274.04V89.5995C274.04 90.0098 274.081 90.2817 274.163 90.415C274.276 90.5997 274.517 90.692 274.886 90.692C275.214 90.692 275.461 90.6715 275.625 90.6305V91.9846C274.855 92.0462 274.476 92.0769 274.486 92.0769C273.624 92.0769 273.029 91.9025 272.701 91.5537C272.424 91.2665 272.286 90.7638 272.286 90.0457V85.3524H270.962ZM284.104 88.4761H278.256C278.256 89.143 278.431 89.6918 278.779 90.1227C279.159 90.5946 279.698 90.8305 280.395 90.8305C281.38 90.8305 282.026 90.3894 282.334 89.5071H283.996C283.811 90.3586 283.386 91.0254 282.719 91.5076C282.062 91.9795 281.288 92.2154 280.395 92.2154C279.174 92.2154 278.22 91.8307 277.533 91.0613C276.846 90.2919 276.502 89.2814 276.502 88.0299C276.502 86.8604 276.846 85.8756 277.533 85.0754C278.261 84.2444 279.2 83.8289 280.349 83.8289C281.467 83.8289 282.385 84.2393 283.104 85.06C283.791 85.8294 284.135 86.7732 284.135 87.8914C284.135 88.0863 284.124 88.2812 284.104 88.4761ZM278.256 87.322H282.349C282.319 86.7373 282.119 86.2397 281.749 85.8294C281.39 85.419 280.924 85.2139 280.349 85.2139C279.754 85.2139 279.262 85.4139 278.872 85.814C278.482 86.2141 278.277 86.7168 278.256 87.322ZM285.006 89.4456H286.761C286.843 90.3689 287.443 90.8305 288.561 90.8305C289.772 90.8305 290.361 90.4817 290.331 89.7841C290.31 89.2917 289.849 88.9378 288.946 88.7223C287.438 88.353 286.622 88.1376 286.499 88.076C285.617 87.6862 285.176 87.0297 285.176 86.1064C285.176 85.3165 285.55 84.7214 286.299 84.3214C286.894 83.9931 287.628 83.8289 288.5 83.8289C289.392 83.8289 290.126 84.0136 290.7 84.3829C291.346 84.8138 291.721 85.4447 291.823 86.2756H289.992C289.859 85.5678 289.32 85.2139 288.376 85.2139C287.412 85.2139 286.93 85.4857 286.93 86.0294C286.93 86.3987 287.202 86.6809 287.746 86.8758C287.848 86.9168 288.438 87.0604 289.515 87.3066C290.315 87.4913 290.905 87.717 291.285 87.9837C291.818 88.3735 292.085 88.9224 292.085 89.6302C292.085 90.5022 291.7 91.169 290.931 91.6307C290.285 92.0205 289.484 92.2154 288.53 92.2154C287.484 92.2154 286.653 91.9897 286.037 91.5384C285.36 91.0459 285.017 90.3483 285.006 89.4456Z"/></svg>