<svg xmlns="http://www.w3.org/2000/svg" width="119" height="118" fill="none" viewBox="0 0 119 118"><circle cx="59.5" cy="23.163" r="16.5" fill="#F63D3A" stroke="#fff" stroke-width="4" transform="rotate(45 59.5 23.163)"/><circle cx="96.163" cy="60.5" r="16.5" fill="#19A68C" stroke="#fff" stroke-width="4" transform="rotate(45 96.163 60.5)"/><circle cx="23.163" cy="60.5" r="16.5" fill="#193B48" stroke="#fff" stroke-width="4" transform="rotate(45 23.163 60.5)"/><circle cx="59.5" cy="95.163" r="16.5" fill="#FDA543" stroke="#fff" stroke-width="4" transform="rotate(45 59.5 95.1629)"/><path fill="#fff" stroke="#193B48" stroke-width="3.332" d="M87.9417 65.2062H89.5062L89.6046 63.6448C90.2244 53.8048 88.057 45.4084 82.9812 38.5855C77.4638 31.0717 69.6316 27.3339 59.7022 27.3339C50.5142 27.3339 42.8989 30.4157 37.0044 36.6289L37.004 36.6293C31.2012 42.75 28.3339 50.4895 28.3339 59.7147C28.3339 69.1389 31.1102 76.9573 36.7706 83.0163L36.7783 83.0246L36.7862 83.0327C42.5526 89.0395 50.2537 91.9831 59.7022 91.9831C66.9039 91.9831 73.0052 90.2868 77.8886 86.7756C82.7735 83.2634 86.2905 78.0424 88.5125 71.2592L89.2282 69.0744H86.9292H72.8656H71.5887L71.2568 70.3074C70.8766 71.7195 69.8114 73.1009 67.7197 74.3829L67.6926 74.3995L67.6661 74.4171C65.4743 75.8784 63.0228 76.6125 60.2647 76.6125C56.0247 76.6125 53.0571 75.4715 51.0821 73.4342C49.3437 71.6411 48.1858 68.9606 47.774 65.2062H87.9417ZM69.8927 51.7481H47.8412C48.1971 49.8144 48.9855 48.1006 50.2024 46.5795C52.2304 44.0446 55.1609 42.7045 59.2521 42.7045C62.3893 42.7045 64.7472 43.62 66.5 45.3262C67.9713 46.7585 69.131 48.86 69.8927 51.7481Z"/></svg>